<?xml version="1.0" encoding="UTF-8" standalone="no"?>
<!DOCTYPE svg PUBLIC "-//W3C//DTD SVG 1.1//EN"
 "http://www.w3.org/Graphics/SVG/1.1/DTD/svg11.dtd">
<!-- Generated by graphviz version 12.2.1 (20241206.2353)
 -->
<!-- Title: AestheticModel Pages: 1 -->
<svg width="1942pt" height="785pt"
 viewBox="0.00 0.00 1942.20 785.00" xmlns="http://www.w3.org/2000/svg" xmlns:xlink="http://www.w3.org/1999/xlink">
<g id="graph0" class="graph" transform="scale(1 1) rotate(0) translate(4 781)">
<title>AestheticModel</title>
<polygon fill="white" stroke="none" points="-4,4 -4,-781 1938.2,-781 1938.2,4 -4,4"/>
<g id="clust1" class="cluster">
<title>cluster_inputs</title>
<polygon fill="none" stroke="gray" stroke-dasharray="5,2" points="8,-286 8,-483 135.25,-483 135.25,-286 8,-286"/>
<text text-anchor="middle" x="71.62" y="-465.7" font-family="Times New Roman,serif" font-size="14.00">Inputs</text>
</g>
<g id="clust2" class="cluster">
<title>cluster_encoders</title>
<polygon fill="none" stroke="blue" stroke-dasharray="5,2" points="178.25,-301 178.25,-479 353.25,-479 353.25,-301 178.25,-301"/>
<text text-anchor="middle" x="265.75" y="-461.7" font-family="Times New Roman,serif" font-size="14.00">Encoders (Frozen/Finemode)</text>
</g>
<g id="clust3" class="cluster">
<title>cluster_vision_proj</title>
<polygon fill="none" stroke="orange" stroke-dasharray="5,2" points="442.5,-392 442.5,-499 1102,-499 1102,-392 442.5,-392"/>
<text text-anchor="middle" x="772.25" y="-481.7" font-family="Times New Roman,serif" font-size="14.00">Vision Projector</text>
</g>
<g id="clust4" class="cluster">
<title>cluster_text_proj</title>
<polygon fill="none" stroke="orange" stroke-dasharray="5,2" points="442.5,-277 442.5,-384 1102,-384 1102,-277 442.5,-277"/>
<text text-anchor="middle" x="772.25" y="-366.7" font-family="Times New Roman,serif" font-size="14.00">Text Projector</text>
</g>
<g id="clust5" class="cluster">
<title>cluster_heads</title>
<polygon fill="none" stroke="green" stroke-dasharray="5,2" points="1398,-8 1398,-769 1926.2,-769 1926.2,-8 1398,-8"/>
<text text-anchor="middle" x="1662.1" y="-751.7" font-family="Times New Roman,serif" font-size="14.00">Multi&#45;Head Prediction (MLP)</text>
</g>
<!-- Image -->
<g id="node1" class="node">
<title>Image</title>
<polygon fill="#e3f2fd" stroke="black" points="121.25,-450.5 16,-450.5 16,-403.5 127.25,-403.5 127.25,-444.5 121.25,-450.5"/>
<polyline fill="none" stroke="black" points="121.25,-450.5 121.25,-444.5"/>
<polyline fill="none" stroke="black" points="127.25,-444.5 121.25,-444.5"/>
<text text-anchor="middle" x="71.62" y="-433.2" font-family="Segoe UI" font-size="14.00">Image</text>
<text text-anchor="middle" x="71.62" y="-413.7" font-family="Segoe UI" font-size="14.00">[Batch, C, H, W]</text>
</g>
<!-- VisionEncoder -->
<g id="node3" class="node">
<title>VisionEncoder</title>
<polygon fill="#bbdefb" stroke="black" points="319.75,-446.5 210.75,-446.5 210.75,-399.5 319.75,-399.5 319.75,-446.5"/>
<text text-anchor="middle" x="265.25" y="-429.2" font-family="Segoe UI" font-size="14.00">Vision Encoder</text>
<text text-anchor="middle" x="265.25" y="-409.7" font-family="Segoe UI" font-size="14.00">ViT&#45;L&#45;14</text>
</g>
<!-- Image&#45;&gt;VisionEncoder -->
<g id="edge12" class="edge">
<title>Image&#45;&gt;VisionEncoder</title>
<path fill="none" stroke="black" d="M127.54,-425.85C149.77,-425.39 175.62,-424.85 198.82,-424.37"/>
<polygon fill="black" stroke="black" points="198.88,-427.87 208.81,-424.16 198.74,-420.87 198.88,-427.87"/>
</g>
<!-- Prompt -->
<g id="node2" class="node">
<title>Prompt</title>
<polygon fill="#fff3e0" stroke="black" points="110.38,-360.25 26.88,-360.25 26.88,-293.75 116.38,-293.75 116.38,-354.25 110.38,-360.25"/>
<polyline fill="none" stroke="black" points="110.38,-360.25 110.38,-354.25"/>
<polyline fill="none" stroke="black" points="116.38,-354.25 110.38,-354.25"/>
<text text-anchor="middle" x="71.62" y="-342.95" font-family="Segoe UI" font-size="14.00">Prompt</text>
<text text-anchor="middle" x="71.62" y="-323.45" font-family="Segoe UI" font-size="14.00">(Token IDs)</text>
<text text-anchor="middle" x="71.62" y="-303.95" font-family="Segoe UI" font-size="14.00">[Batch, Seq]</text>
</g>
<!-- TextEncoder -->
<g id="node4" class="node">
<title>TextEncoder</title>
<polygon fill="#ffe0b2" stroke="black" points="335.12,-356.5 195.38,-356.5 195.38,-309.5 335.12,-309.5 335.12,-356.5"/>
<text text-anchor="middle" x="265.25" y="-339.2" font-family="Segoe UI" font-size="14.00">Text Encoder</text>
<text text-anchor="middle" x="265.25" y="-319.7" font-family="Segoe UI" font-size="14.00">XLM&#45;RoBERTa&#45;Large</text>
</g>
<!-- Prompt&#45;&gt;TextEncoder -->
<g id="edge13" class="edge">
<title>Prompt&#45;&gt;TextEncoder</title>
<path fill="none" stroke="black" d="M116.59,-328.38C136.44,-329 160.54,-329.75 183.46,-330.47"/>
<polygon fill="black" stroke="black" points="183.34,-333.97 193.44,-330.78 183.55,-326.97 183.34,-333.97"/>
</g>
<!-- Vis_Linear -->
<g id="node5" class="node">
<title>Vis_Linear</title>
<polygon fill="#ffcc80" stroke="black" points="719.25,-466.25 450.5,-466.25 450.5,-399.75 719.25,-399.75 719.25,-466.25"/>
<text text-anchor="middle" x="584.88" y="-448.95" font-family="Segoe UI" font-size="14.00">Linear</text>
<text text-anchor="middle" x="584.88" y="-429.45" font-family="Segoe UI" font-size="14.00">1024 &#45;&gt; 768</text>
<text text-anchor="middle" x="584.88" y="-409.95" font-family="Segoe UI" font-size="14.00">(通过训练一个矩阵然后和1024相乘实现)</text>
</g>
<!-- VisionEncoder&#45;&gt;Vis_Linear -->
<g id="edge14" class="edge">
<title>VisionEncoder&#45;&gt;Vis_Linear</title>
<path fill="none" stroke="black" d="M320.13,-424.7C352.95,-425.73 396.59,-427.1 438.91,-428.44"/>
<polygon fill="black" stroke="black" points="438.6,-431.93 448.7,-428.74 438.82,-424.93 438.6,-431.93"/>
<text text-anchor="middle" x="397.88" y="-428.7" font-family="Consolas" font-size="10.00">[B, 1024]</text>
</g>
<!-- Txt_Linear -->
<g id="node8" class="node">
<title>Txt_Linear</title>
<polygon fill="#ffcc80" stroke="black" points="719.25,-351.25 450.5,-351.25 450.5,-284.75 719.25,-284.75 719.25,-351.25"/>
<text text-anchor="middle" x="584.88" y="-333.95" font-family="Segoe UI" font-size="14.00">Linear</text>
<text text-anchor="middle" x="584.88" y="-314.45" font-family="Segoe UI" font-size="14.00">1024 &#45;&gt; 768</text>
<text text-anchor="middle" x="584.88" y="-294.95" font-family="Segoe UI" font-size="14.00">(通过训练一个矩阵然后和1024相乘实现)</text>
</g>
<!-- TextEncoder&#45;&gt;Txt_Linear -->
<g id="edge15" class="edge">
<title>TextEncoder&#45;&gt;Txt_Linear</title>
<path fill="none" stroke="black" d="M335.56,-329.73C366,-328.29 402.95,-326.54 438.94,-324.84"/>
<polygon fill="black" stroke="black" points="438.74,-328.36 448.56,-324.39 438.41,-321.37 438.74,-328.36"/>
<text text-anchor="middle" x="397.88" y="-328.72" font-family="Consolas" font-size="10.00">[B, 1024]</text>
</g>
<!-- Vis_LN -->
<g id="node6" class="node">
<title>Vis_LN</title>
<polygon fill="#ffcc80" stroke="black" points="981,-451.5 778.25,-451.5 778.25,-404.5 981,-404.5 981,-451.5"/>
<text text-anchor="middle" x="879.62" y="-434.2" font-family="Segoe UI" font-size="14.00">LayerNorm</text>
<text text-anchor="middle" x="879.62" y="-414.7" font-family="Segoe UI" font-size="14.00">(作用: 归一化特征，稳定训练)</text>
</g>
<!-- Vis_Linear&#45;&gt;Vis_LN -->
<g id="edge1" class="edge">
<title>Vis_Linear&#45;&gt;Vis_LN</title>
<path fill="none" stroke="black" d="M719.4,-430.72C735.3,-430.45 751.4,-430.17 766.94,-429.91"/>
<polygon fill="black" stroke="black" points="766.7,-433.41 776.64,-429.74 766.58,-426.41 766.7,-433.41"/>
</g>
<!-- Vis_GELU -->
<g id="node7" class="node">
<title>Vis_GELU</title>
<polygon fill="#ffcc80" stroke="black" points="1094,-441 1040,-441 1040,-405 1094,-405 1094,-441"/>
<text text-anchor="middle" x="1067" y="-419.45" font-family="Segoe UI" font-size="14.00">GELU</text>
</g>
<!-- Vis_LN&#45;&gt;Vis_GELU -->
<g id="edge2" class="edge">
<title>Vis_LN&#45;&gt;Vis_GELU</title>
<path fill="none" stroke="black" d="M981.45,-425.28C998.13,-424.83 1014.46,-424.39 1028.25,-424.02"/>
<polygon fill="black" stroke="black" points="1028.25,-427.52 1038.15,-423.75 1028.06,-420.52 1028.25,-427.52"/>
</g>
<!-- Concat -->
<g id="node11" class="node">
<title>Concat</title>
<polygon fill="#e1bee7" stroke="black" points="1300.75,-399.5 1194,-399.5 1194,-352.5 1300.75,-352.5 1300.75,-399.5"/>
<text text-anchor="middle" x="1247.38" y="-382.2" font-family="Segoe UI" font-size="14.00">Concatenation</text>
<text text-anchor="middle" x="1247.38" y="-362.7" font-family="Segoe UI" font-size="14.00">(Vision + Text)</text>
</g>
<!-- Vis_GELU&#45;&gt;Concat -->
<g id="edge16" class="edge">
<title>Vis_GELU&#45;&gt;Concat</title>
<path fill="none" stroke="black" d="M1094.32,-416.06C1117.54,-409.95 1152.32,-400.78 1182.76,-392.76"/>
<polygon fill="black" stroke="black" points="1183.51,-396.18 1192.29,-390.25 1181.72,-389.42 1183.51,-396.18"/>
<text text-anchor="middle" x="1144" y="-408.8" font-family="Consolas" font-size="10.00">[B, 768]</text>
</g>
<!-- Txt_LN -->
<g id="node9" class="node">
<title>Txt_LN</title>
<polygon fill="#ffcc80" stroke="black" points="981,-347.5 778.25,-347.5 778.25,-300.5 981,-300.5 981,-347.5"/>
<text text-anchor="middle" x="879.62" y="-330.2" font-family="Segoe UI" font-size="14.00">LayerNorm</text>
<text text-anchor="middle" x="879.62" y="-310.7" font-family="Segoe UI" font-size="14.00">(作用: 归一化特征，稳定训练)</text>
</g>
<!-- Txt_Linear&#45;&gt;Txt_LN -->
<g id="edge3" class="edge">
<title>Txt_Linear&#45;&gt;Txt_LN</title>
<path fill="none" stroke="black" d="M719.4,-320.74C735.3,-321.06 751.4,-321.39 766.94,-321.71"/>
<polygon fill="black" stroke="black" points="766.57,-325.2 776.64,-321.91 766.71,-318.21 766.57,-325.2"/>
</g>
<!-- Txt_GELU -->
<g id="node10" class="node">
<title>Txt_GELU</title>
<polygon fill="#ffcc80" stroke="black" points="1094,-346 1040,-346 1040,-310 1094,-310 1094,-346"/>
<text text-anchor="middle" x="1067" y="-324.45" font-family="Segoe UI" font-size="14.00">GELU</text>
</g>
<!-- Txt_LN&#45;&gt;Txt_GELU -->
<g id="edge4" class="edge">
<title>Txt_LN&#45;&gt;Txt_GELU</title>
<path fill="none" stroke="black" d="M981.45,-326.18C998.13,-326.54 1014.46,-326.89 1028.25,-327.19"/>
<polygon fill="black" stroke="black" points="1028.07,-330.68 1038.15,-327.4 1028.22,-323.68 1028.07,-330.68"/>
</g>
<!-- Txt_GELU&#45;&gt;Concat -->
<g id="edge17" class="edge">
<title>Txt_GELU&#45;&gt;Concat</title>
<path fill="none" stroke="black" d="M1094.32,-335.08C1117.54,-341.33 1152.32,-350.69 1182.76,-358.88"/>
<polygon fill="black" stroke="black" points="1181.72,-362.23 1192.29,-361.45 1183.54,-355.47 1181.72,-362.23"/>
<text text-anchor="middle" x="1144" y="-354.44" font-family="Consolas" font-size="10.00">[B, 768]</text>
</g>
<!-- Head_total_score -->
<g id="node12" class="node">
<title>Head_total_score</title>
<polygon fill="#c8e6c9" stroke="black" points="1634.25,-709.5 1406,-709.5 1406,-662.5 1634.25,-662.5 1634.25,-709.5"/>
<text text-anchor="middle" x="1520.12" y="-692.2" font-family="Segoe UI" font-size="14.00">Total Score Head</text>
<text text-anchor="middle" x="1520.12" y="-672.7" font-family="Segoe UI" font-size="14.00">[Linear&#45;&gt;ReLU&#45;&gt;Dropout&#45;&gt;Linear]</text>
</g>
<!-- Concat&#45;&gt;Head_total_score -->
<g id="edge18" class="edge">
<title>Concat&#45;&gt;Head_total_score</title>
<path fill="none" stroke="black" d="M1257,-399.74C1275.64,-448.08 1324.07,-558.83 1398,-624 1412.67,-636.93 1430.51,-647.98 1447.94,-657.01"/>
<polygon fill="black" stroke="black" points="1446.26,-660.09 1456.77,-661.42 1449.39,-653.82 1446.26,-660.09"/>
<text text-anchor="middle" x="1353.38" y="-603.2" font-family="Consolas" font-size="10.00">[B, 1536]</text>
</g>
<!-- Head_composition -->
<g id="node14" class="node">
<title>Head_composition</title>
<polygon fill="#c8e6c9" stroke="black" points="1634.25,-602.5 1406,-602.5 1406,-555.5 1634.25,-555.5 1634.25,-602.5"/>
<text text-anchor="middle" x="1520.12" y="-585.2" font-family="Segoe UI" font-size="14.00">Composition Head</text>
<text text-anchor="middle" x="1520.12" y="-565.7" font-family="Segoe UI" font-size="14.00">[Linear&#45;&gt;ReLU&#45;&gt;Dropout&#45;&gt;Linear]</text>
</g>
<!-- Concat&#45;&gt;Head_composition -->
<g id="edge19" class="edge">
<title>Concat&#45;&gt;Head_composition</title>
<path fill="none" stroke="black" d="M1268.77,-399.8C1295.93,-430.46 1346.57,-484.08 1398,-520 1414.11,-531.25 1432.69,-541.47 1450.39,-550.13"/>
<polygon fill="black" stroke="black" points="1448.78,-553.24 1459.31,-554.39 1451.79,-546.92 1448.78,-553.24"/>
<text text-anchor="middle" x="1353.38" y="-504.12" font-family="Consolas" font-size="10.00">[B, 1536]</text>
</g>
<!-- Head_color -->
<g id="node16" class="node">
<title>Head_color</title>
<polygon fill="#c8e6c9" stroke="black" points="1634.25,-498.5 1406,-498.5 1406,-451.5 1634.25,-451.5 1634.25,-498.5"/>
<text text-anchor="middle" x="1520.12" y="-481.2" font-family="Segoe UI" font-size="14.00">Color Head</text>
<text text-anchor="middle" x="1520.12" y="-461.7" font-family="Segoe UI" font-size="14.00">[Linear&#45;&gt;ReLU&#45;&gt;Dropout&#45;&gt;Linear]</text>
</g>
<!-- Concat&#45;&gt;Head_color -->
<g id="edge20" class="edge">
<title>Concat&#45;&gt;Head_color</title>
<path fill="none" stroke="black" d="M1301.22,-395.32C1341.68,-410.12 1398.05,-430.73 1443.32,-447.28"/>
<polygon fill="black" stroke="black" points="1441.96,-450.51 1452.56,-450.66 1444.37,-443.94 1441.96,-450.51"/>
<text text-anchor="middle" x="1353.38" y="-423.53" font-family="Consolas" font-size="10.00">[B, 1536]</text>
</g>
<!-- Head_lighting -->
<g id="node18" class="node">
<title>Head_lighting</title>
<polygon fill="#c8e6c9" stroke="black" points="1634.25,-399.5 1406,-399.5 1406,-352.5 1634.25,-352.5 1634.25,-399.5"/>
<text text-anchor="middle" x="1520.12" y="-382.2" font-family="Segoe UI" font-size="14.00">Lighting Head</text>
<text text-anchor="middle" x="1520.12" y="-362.7" font-family="Segoe UI" font-size="14.00">[Linear&#45;&gt;ReLU&#45;&gt;Dropout&#45;&gt;Linear]</text>
</g>
<!-- Concat&#45;&gt;Head_lighting -->
<g id="edge21" class="edge">
<title>Concat&#45;&gt;Head_lighting</title>
<path fill="none" stroke="black" d="M1301.22,-376C1327.97,-376 1361.68,-376 1394.54,-376"/>
<polygon fill="black" stroke="black" points="1394.12,-379.5 1404.12,-376 1394.12,-372.5 1394.12,-379.5"/>
<text text-anchor="middle" x="1353.38" y="-377" font-family="Consolas" font-size="10.00">[B, 1536]</text>
</g>
<!-- Head_subject_clarity -->
<g id="node20" class="node">
<title>Head_subject_clarity</title>
<polygon fill="#c8e6c9" stroke="black" points="1634.25,-307.5 1406,-307.5 1406,-260.5 1634.25,-260.5 1634.25,-307.5"/>
<text text-anchor="middle" x="1520.12" y="-290.2" font-family="Segoe UI" font-size="14.00">Subject Clarity Head</text>
<text text-anchor="middle" x="1520.12" y="-270.7" font-family="Segoe UI" font-size="14.00">[Linear&#45;&gt;ReLU&#45;&gt;Dropout&#45;&gt;Linear]</text>
</g>
<!-- Concat&#45;&gt;Head_subject_clarity -->
<g id="edge22" class="edge">
<title>Concat&#45;&gt;Head_subject_clarity</title>
<path fill="none" stroke="black" d="M1301.22,-358.04C1340.1,-344.83 1393.68,-326.63 1437.97,-311.58"/>
<polygon fill="black" stroke="black" points="1438.95,-314.94 1447.29,-308.41 1436.7,-308.31 1438.95,-314.94"/>
<text text-anchor="middle" x="1353.38" y="-347.24" font-family="Consolas" font-size="10.00">[B, 1536]</text>
</g>
<!-- Head_creativity -->
<g id="node22" class="node">
<title>Head_creativity</title>
<polygon fill="#c8e6c9" stroke="black" points="1634.25,-214.5 1406,-214.5 1406,-167.5 1634.25,-167.5 1634.25,-214.5"/>
<text text-anchor="middle" x="1520.12" y="-197.2" font-family="Segoe UI" font-size="14.00">Creativity Head</text>
<text text-anchor="middle" x="1520.12" y="-177.7" font-family="Segoe UI" font-size="14.00">[Linear&#45;&gt;ReLU&#45;&gt;Dropout&#45;&gt;Linear]</text>
</g>
<!-- Concat&#45;&gt;Head_creativity -->
<g id="edge23" class="edge">
<title>Concat&#45;&gt;Head_creativity</title>
<path fill="none" stroke="black" d="M1269.31,-352.07C1296.47,-322.23 1346.5,-271.24 1398,-239 1409.72,-231.66 1422.76,-225.09 1435.81,-219.34"/>
<polygon fill="black" stroke="black" points="1437.02,-222.62 1444.86,-215.49 1434.29,-216.18 1437.02,-222.62"/>
<text text-anchor="middle" x="1353.38" y="-290.69" font-family="Consolas" font-size="10.00">[B, 1536]</text>
</g>
<!-- Head_commercial_appeal -->
<g id="node24" class="node">
<title>Head_commercial_appeal</title>
<polygon fill="#c8e6c9" stroke="black" points="1634.25,-118.5 1406,-118.5 1406,-71.5 1634.25,-71.5 1634.25,-118.5"/>
<text text-anchor="middle" x="1520.12" y="-101.2" font-family="Segoe UI" font-size="14.00">Commercial Appeal Head</text>
<text text-anchor="middle" x="1520.12" y="-81.7" font-family="Segoe UI" font-size="14.00">[Linear&#45;&gt;ReLU&#45;&gt;Dropout&#45;&gt;Linear]</text>
</g>
<!-- Concat&#45;&gt;Head_commercial_appeal -->
<g id="edge24" class="edge">
<title>Concat&#45;&gt;Head_commercial_appeal</title>
<path fill="none" stroke="black" d="M1257.39,-352.31C1276.28,-305.83 1324.43,-202.33 1398,-146 1409.15,-137.46 1421.94,-130.08 1434.94,-123.8"/>
<polygon fill="black" stroke="black" points="1436.38,-126.98 1444,-119.62 1433.45,-120.63 1436.38,-126.98"/>
<text text-anchor="middle" x="1353.38" y="-217.22" font-family="Consolas" font-size="10.00">[B, 1536]</text>
</g>
<!-- Out_total_score -->
<g id="node13" class="node">
<title>Out_total_score</title>
<ellipse fill="#a5d6a7" stroke="black" cx="1820.98" cy="-703" rx="59.04" ry="33.23"/>
<text text-anchor="middle" x="1820.98" y="-709.2" font-family="Segoe UI" font-size="14.00">Total Score</text>
<text text-anchor="middle" x="1820.98" y="-689.7" font-family="Segoe UI" font-size="14.00">Score</text>
</g>
<!-- Head_total_score&#45;&gt;Out_total_score -->
<g id="edge5" class="edge">
<title>Head_total_score&#45;&gt;Out_total_score</title>
<path fill="none" stroke="black" d="M1634.53,-692.45C1673.55,-694.67 1716.05,-697.09 1750.51,-699.05"/>
<polygon fill="black" stroke="black" points="1750.18,-702.54 1760.36,-699.61 1750.58,-695.55 1750.18,-702.54"/>
<text text-anchor="middle" x="1679" y="-696.52" font-family="Consolas" font-size="10.00">[B, 1]</text>
</g>
<!-- Out_composition -->
<g id="node15" class="node">
<title>Out_composition</title>
<ellipse fill="#a5d6a7" stroke="black" cx="1820.98" cy="-594" rx="68.06" ry="33.23"/>
<text text-anchor="middle" x="1820.98" y="-600.2" font-family="Segoe UI" font-size="14.00">Composition</text>
<text text-anchor="middle" x="1820.98" y="-580.7" font-family="Segoe UI" font-size="14.00">Score</text>
</g>
<!-- Head_composition&#45;&gt;Out_composition -->
<g id="edge6" class="edge">
<title>Head_composition&#45;&gt;Out_composition</title>
<path fill="none" stroke="black" d="M1634.53,-584.69C1670.28,-586.49 1708.95,-588.43 1741.68,-590.07"/>
<polygon fill="black" stroke="black" points="1741.32,-593.56 1751.48,-590.56 1741.67,-586.57 1741.32,-593.56"/>
<text text-anchor="middle" x="1679" y="-588.4" font-family="Consolas" font-size="10.00">[B, 1]</text>
</g>
<!-- Out_color -->
<g id="node17" class="node">
<title>Out_color</title>
<ellipse fill="#a5d6a7" stroke="black" cx="1820.98" cy="-485" rx="35.71" ry="33.23"/>
<text text-anchor="middle" x="1820.98" y="-491.2" font-family="Segoe UI" font-size="14.00">Color</text>
<text text-anchor="middle" x="1820.98" y="-471.7" font-family="Segoe UI" font-size="14.00">Score</text>
</g>
<!-- Head_color&#45;&gt;Out_color -->
<g id="edge7" class="edge">
<title>Head_color&#45;&gt;Out_color</title>
<path fill="none" stroke="black" d="M1634.53,-478.79C1682.81,-480.41 1736.42,-482.2 1773.53,-483.45"/>
<polygon fill="black" stroke="black" points="1773.35,-486.94 1783.46,-483.78 1773.58,-479.95 1773.35,-486.94"/>
<text text-anchor="middle" x="1679" y="-481.6" font-family="Consolas" font-size="10.00">[B, 1]</text>
</g>
<!-- Out_lighting -->
<g id="node19" class="node">
<title>Out_lighting</title>
<ellipse fill="#a5d6a7" stroke="black" cx="1820.98" cy="-376" rx="47.91" ry="33.23"/>
<text text-anchor="middle" x="1820.98" y="-382.2" font-family="Segoe UI" font-size="14.00">Lighting</text>
<text text-anchor="middle" x="1820.98" y="-362.7" font-family="Segoe UI" font-size="14.00">Score</text>
</g>
<!-- Head_lighting&#45;&gt;Out_lighting -->
<g id="edge8" class="edge">
<title>Head_lighting&#45;&gt;Out_lighting</title>
<path fill="none" stroke="black" d="M1634.53,-376C1677.74,-376 1725.23,-376 1761.33,-376"/>
<polygon fill="black" stroke="black" points="1761.11,-379.5 1771.11,-376 1761.11,-372.5 1761.11,-379.5"/>
<text text-anchor="middle" x="1679" y="-377" font-family="Consolas" font-size="10.00">[B, 1]</text>
</g>
<!-- Out_subject_clarity -->
<g id="node21" class="node">
<title>Out_subject_clarity</title>
<ellipse fill="#a5d6a7" stroke="black" cx="1820.98" cy="-267" rx="74.42" ry="33.23"/>
<text text-anchor="middle" x="1820.98" y="-273.2" font-family="Segoe UI" font-size="14.00">Subject Clarity</text>
<text text-anchor="middle" x="1820.98" y="-253.7" font-family="Segoe UI" font-size="14.00">Score</text>
</g>
<!-- Head_subject_clarity&#45;&gt;Out_subject_clarity -->
<g id="edge9" class="edge">
<title>Head_subject_clarity&#45;&gt;Out_subject_clarity</title>
<path fill="none" stroke="black" d="M1634.53,-277.55C1668.06,-275.64 1704.17,-273.59 1735.53,-271.8"/>
<polygon fill="black" stroke="black" points="1735.56,-275.31 1745.34,-271.25 1735.16,-268.32 1735.56,-275.31"/>
<text text-anchor="middle" x="1679" y="-276.5" font-family="Consolas" font-size="10.00">[B, 1]</text>
</g>
<!-- Out_creativity -->
<g id="node23" class="node">
<title>Out_creativity</title>
<ellipse fill="#a5d6a7" stroke="black" cx="1820.98" cy="-158" rx="52.15" ry="33.23"/>
<text text-anchor="middle" x="1820.98" y="-164.2" font-family="Segoe UI" font-size="14.00">Creativity</text>
<text text-anchor="middle" x="1820.98" y="-144.7" font-family="Segoe UI" font-size="14.00">Score</text>
</g>
<!-- Head_creativity&#45;&gt;Out_creativity -->
<g id="edge10" class="edge">
<title>Head_creativity&#45;&gt;Out_creativity</title>
<path fill="none" stroke="black" d="M1634.53,-178.48C1676.4,-173.85 1722.28,-168.79 1757.93,-164.85"/>
<polygon fill="black" stroke="black" points="1758.07,-168.36 1767.63,-163.78 1757.3,-161.4 1758.07,-168.36"/>
<text text-anchor="middle" x="1679" y="-175.5" font-family="Consolas" font-size="10.00">[B, 1]</text>
</g>
<!-- Out_commercial_appeal -->
<g id="node25" class="node">
<title>Out_commercial_appeal</title>
<ellipse fill="#a5d6a7" stroke="black" cx="1820.98" cy="-49" rx="97.23" ry="33.23"/>
<text text-anchor="middle" x="1820.98" y="-55.2" font-family="Segoe UI" font-size="14.00">Commercial Appeal</text>
<text text-anchor="middle" x="1820.98" y="-35.7" font-family="Segoe UI" font-size="14.00">Score</text>
</g>
<!-- Head_commercial_appeal&#45;&gt;Out_commercial_appeal -->
<g id="edge11" class="edge">
<title>Head_commercial_appeal&#45;&gt;Out_commercial_appeal</title>
<path fill="none" stroke="black" d="M1634.53,-77.54C1662.83,-73.19 1692.97,-68.55 1720.53,-64.31"/>
<polygon fill="black" stroke="black" points="1720.92,-67.79 1730.28,-62.81 1719.86,-60.87 1720.92,-67.79"/>
<text text-anchor="middle" x="1679" y="-73" font-family="Consolas" font-size="10.00">[B, 1]</text>
</g>
</g>
</svg>
