<?xml version="1.0" encoding="UTF-8" standalone="no"?>
<!DOCTYPE svg PUBLIC "-//W3C//DTD SVG 1.1//EN"
 "http://www.w3.org/Graphics/SVG/1.1/DTD/svg11.dtd">
<!-- Generated by graphviz version 12.2.1 (20241206.2353)
 -->
<!-- Title: AestheticModel Pages: 1 -->
<svg width="1645pt" height="785pt"
 viewBox="0.00 0.00 1645.20 785.00" xmlns="http://www.w3.org/2000/svg" xmlns:xlink="http://www.w3.org/1999/xlink">
<g id="graph0" class="graph" transform="scale(1 1) rotate(0) translate(4 781)">
<title>AestheticModel</title>
<polygon fill="white" stroke="none" points="-4,4 -4,-781 1641.2,-781 1641.2,4 -4,4"/>
<g id="clust1" class="cluster">
<title>cluster_inputs</title>
<polygon fill="none" stroke="gray" stroke-dasharray="5,2" points="8,-285 8,-482 135.25,-482 135.25,-285 8,-285"/>
<text text-anchor="middle" x="71.62" y="-464.7" font-family="Times New Roman,serif" font-size="14.00">Inputs</text>
</g>
<g id="clust2" class="cluster">
<title>cluster_encoders</title>
<polygon fill="none" stroke="blue" stroke-dasharray="5,2" points="178.25,-300 178.25,-478 353.25,-478 353.25,-300 178.25,-300"/>
<text text-anchor="middle" x="265.75" y="-460.7" font-family="Times New Roman,serif" font-size="14.00">Encoders (Frozen/Finemode)</text>
</g>
<g id="clust3" class="cluster">
<title>cluster_vision_proj</title>
<polygon fill="none" stroke="orange" stroke-dasharray="5,2" points="442.5,-392 442.5,-480 805,-480 805,-392 442.5,-392"/>
<text text-anchor="middle" x="623.75" y="-462.7" font-family="Times New Roman,serif" font-size="14.00">Vision Projector</text>
</g>
<g id="clust4" class="cluster">
<title>cluster_text_proj</title>
<polygon fill="none" stroke="orange" stroke-dasharray="5,2" points="442.5,-296 442.5,-384 805,-384 805,-296 442.5,-296"/>
<text text-anchor="middle" x="623.75" y="-366.7" font-family="Times New Roman,serif" font-size="14.00">Text Projector</text>
</g>
<g id="clust5" class="cluster">
<title>cluster_heads</title>
<polygon fill="none" stroke="green" stroke-dasharray="5,2" points="1101,-8 1101,-769 1629.2,-769 1629.2,-8 1101,-8"/>
<text text-anchor="middle" x="1365.1" y="-751.7" font-family="Times New Roman,serif" font-size="14.00">Multi&#45;Head Prediction (MLP)</text>
</g>
<!-- Image -->
<g id="node1" class="node">
<title>Image</title>
<polygon fill="#e3f2fd" stroke="black" points="121.25,-449.5 16,-449.5 16,-402.5 127.25,-402.5 127.25,-443.5 121.25,-449.5"/>
<polyline fill="none" stroke="black" points="121.25,-449.5 121.25,-443.5"/>
<polyline fill="none" stroke="black" points="127.25,-443.5 121.25,-443.5"/>
<text text-anchor="middle" x="71.62" y="-432.2" font-family="Segoe UI" font-size="14.00">Image</text>
<text text-anchor="middle" x="71.62" y="-412.7" font-family="Segoe UI" font-size="14.00">[Batch, C, H, W]</text>
</g>
<!-- VisionEncoder -->
<g id="node3" class="node">
<title>VisionEncoder</title>
<polygon fill="#bbdefb" stroke="black" points="319.75,-445.5 210.75,-445.5 210.75,-398.5 319.75,-398.5 319.75,-445.5"/>
<text text-anchor="middle" x="265.25" y="-428.2" font-family="Segoe UI" font-size="14.00">Vision Encoder</text>
<text text-anchor="middle" x="265.25" y="-408.7" font-family="Segoe UI" font-size="14.00">ViT&#45;L&#45;14</text>
</g>
<!-- Image&#45;&gt;VisionEncoder -->
<g id="edge12" class="edge">
<title>Image&#45;&gt;VisionEncoder</title>
<path fill="none" stroke="black" d="M127.54,-424.85C149.77,-424.39 175.62,-423.85 198.82,-423.37"/>
<polygon fill="black" stroke="black" points="198.88,-426.87 208.81,-423.16 198.74,-419.87 198.88,-426.87"/>
</g>
<!-- Prompt -->
<g id="node2" class="node">
<title>Prompt</title>
<polygon fill="#fff3e0" stroke="black" points="110.38,-359.25 26.88,-359.25 26.88,-292.75 116.38,-292.75 116.38,-353.25 110.38,-359.25"/>
<polyline fill="none" stroke="black" points="110.38,-359.25 110.38,-353.25"/>
<polyline fill="none" stroke="black" points="116.38,-353.25 110.38,-353.25"/>
<text text-anchor="middle" x="71.62" y="-341.95" font-family="Segoe UI" font-size="14.00">Prompt</text>
<text text-anchor="middle" x="71.62" y="-322.45" font-family="Segoe UI" font-size="14.00">(Token IDs)</text>
<text text-anchor="middle" x="71.62" y="-302.95" font-family="Segoe UI" font-size="14.00">[Batch, Seq]</text>
</g>
<!-- TextEncoder -->
<g id="node4" class="node">
<title>TextEncoder</title>
<polygon fill="#ffe0b2" stroke="black" points="335.12,-355.5 195.38,-355.5 195.38,-308.5 335.12,-308.5 335.12,-355.5"/>
<text text-anchor="middle" x="265.25" y="-338.2" font-family="Segoe UI" font-size="14.00">Text Encoder</text>
<text text-anchor="middle" x="265.25" y="-318.7" font-family="Segoe UI" font-size="14.00">XLM&#45;RoBERTa&#45;Large</text>
</g>
<!-- Prompt&#45;&gt;TextEncoder -->
<g id="edge13" class="edge">
<title>Prompt&#45;&gt;TextEncoder</title>
<path fill="none" stroke="black" d="M116.59,-327.38C136.44,-328 160.54,-328.75 183.46,-329.47"/>
<polygon fill="black" stroke="black" points="183.34,-332.97 193.44,-329.78 183.55,-325.97 183.34,-332.97"/>
</g>
<!-- Vis_Linear -->
<g id="node5" class="node">
<title>Vis_Linear</title>
<polygon fill="#ffcc80" stroke="black" points="541.5,-447.5 450.5,-447.5 450.5,-400.5 541.5,-400.5 541.5,-447.5"/>
<text text-anchor="middle" x="496" y="-430.2" font-family="Segoe UI" font-size="14.00">Linear</text>
<text text-anchor="middle" x="496" y="-410.7" font-family="Segoe UI" font-size="14.00">1024 &#45;&gt; 768</text>
</g>
<!-- VisionEncoder&#45;&gt;Vis_Linear -->
<g id="edge14" class="edge">
<title>VisionEncoder&#45;&gt;Vis_Linear</title>
<path fill="none" stroke="black" d="M320.17,-422.47C355.93,-422.78 402.75,-423.19 438.93,-423.51"/>
<polygon fill="black" stroke="black" points="438.74,-427.01 448.77,-423.6 438.8,-420.01 438.74,-427.01"/>
<text text-anchor="middle" x="397.88" y="-424.35" font-family="Consolas" font-size="10.00">[B, 1024]</text>
</g>
<!-- Txt_Linear -->
<g id="node8" class="node">
<title>Txt_Linear</title>
<polygon fill="#ffcc80" stroke="black" points="541.5,-351.5 450.5,-351.5 450.5,-304.5 541.5,-304.5 541.5,-351.5"/>
<text text-anchor="middle" x="496" y="-334.2" font-family="Segoe UI" font-size="14.00">Linear</text>
<text text-anchor="middle" x="496" y="-314.7" font-family="Segoe UI" font-size="14.00">1024 &#45;&gt; 768</text>
</g>
<!-- TextEncoder&#45;&gt;Txt_Linear -->
<g id="edge15" class="edge">
<title>TextEncoder&#45;&gt;Txt_Linear</title>
<path fill="none" stroke="black" d="M335.5,-330.79C368.65,-330.21 407.81,-329.52 439.04,-328.98"/>
<polygon fill="black" stroke="black" points="438.7,-332.49 448.64,-328.81 438.58,-325.49 438.7,-332.49"/>
<text text-anchor="middle" x="397.88" y="-331" font-family="Consolas" font-size="10.00">[B, 1024]</text>
</g>
<!-- Vis_LN -->
<g id="node6" class="node">
<title>Vis_LN</title>
<polygon fill="#ffcc80" stroke="black" points="684,-440 600.5,-440 600.5,-404 684,-404 684,-440"/>
<text text-anchor="middle" x="642.25" y="-418.45" font-family="Segoe UI" font-size="14.00">LayerNorm</text>
</g>
<!-- Vis_Linear&#45;&gt;Vis_LN -->
<g id="edge1" class="edge">
<title>Vis_Linear&#45;&gt;Vis_LN</title>
<path fill="none" stroke="black" d="M541.85,-423.38C556.75,-423.17 573.46,-422.94 588.87,-422.73"/>
<polygon fill="black" stroke="black" points="588.89,-426.23 598.84,-422.59 588.79,-419.23 588.89,-426.23"/>
</g>
<!-- Vis_GELU -->
<g id="node7" class="node">
<title>Vis_GELU</title>
<polygon fill="#ffcc80" stroke="black" points="797,-437 743,-437 743,-401 797,-401 797,-437"/>
<text text-anchor="middle" x="770" y="-415.45" font-family="Segoe UI" font-size="14.00">GELU</text>
</g>
<!-- Vis_LN&#45;&gt;Vis_GELU -->
<g id="edge2" class="edge">
<title>Vis_LN&#45;&gt;Vis_GELU</title>
<path fill="none" stroke="black" d="M684.43,-421.02C699.57,-420.66 716.63,-420.25 731.45,-419.9"/>
<polygon fill="black" stroke="black" points="731.34,-423.4 741.25,-419.66 731.17,-416.4 731.34,-423.4"/>
</g>
<!-- Concat -->
<g id="node11" class="node">
<title>Concat</title>
<polygon fill="#e1bee7" stroke="black" points="1003.75,-399.5 897,-399.5 897,-352.5 1003.75,-352.5 1003.75,-399.5"/>
<text text-anchor="middle" x="950.38" y="-382.2" font-family="Segoe UI" font-size="14.00">Concatenation</text>
<text text-anchor="middle" x="950.38" y="-362.7" font-family="Segoe UI" font-size="14.00">(Vision + Text)</text>
</g>
<!-- Vis_GELU&#45;&gt;Concat -->
<g id="edge16" class="edge">
<title>Vis_GELU&#45;&gt;Concat</title>
<path fill="none" stroke="black" d="M797.32,-412.66C820.54,-407.06 855.32,-398.67 885.76,-391.34"/>
<polygon fill="black" stroke="black" points="886.38,-394.79 895.28,-389.04 884.74,-387.98 886.38,-394.79"/>
<text text-anchor="middle" x="847" y="-406.09" font-family="Consolas" font-size="10.00">[B, 768]</text>
</g>
<!-- Txt_LN -->
<g id="node9" class="node">
<title>Txt_LN</title>
<polygon fill="#ffcc80" stroke="black" points="684,-348 600.5,-348 600.5,-312 684,-312 684,-348"/>
<text text-anchor="middle" x="642.25" y="-326.45" font-family="Segoe UI" font-size="14.00">LayerNorm</text>
</g>
<!-- Txt_Linear&#45;&gt;Txt_LN -->
<g id="edge3" class="edge">
<title>Txt_Linear&#45;&gt;Txt_LN</title>
<path fill="none" stroke="black" d="M541.85,-328.62C556.75,-328.83 573.46,-329.06 588.87,-329.27"/>
<polygon fill="black" stroke="black" points="588.79,-332.77 598.84,-329.41 588.89,-325.77 588.79,-332.77"/>
</g>
<!-- Txt_GELU -->
<g id="node10" class="node">
<title>Txt_GELU</title>
<polygon fill="#ffcc80" stroke="black" points="797,-350 743,-350 743,-314 797,-314 797,-350"/>
<text text-anchor="middle" x="770" y="-328.45" font-family="Segoe UI" font-size="14.00">GELU</text>
</g>
<!-- Txt_LN&#45;&gt;Txt_GELU -->
<g id="edge4" class="edge">
<title>Txt_LN&#45;&gt;Txt_GELU</title>
<path fill="none" stroke="black" d="M684.43,-330.65C699.57,-330.9 716.63,-331.17 731.45,-331.4"/>
<polygon fill="black" stroke="black" points="731.2,-334.9 741.25,-331.56 731.31,-327.9 731.2,-334.9"/>
</g>
<!-- Txt_GELU&#45;&gt;Concat -->
<g id="edge17" class="edge">
<title>Txt_GELU&#45;&gt;Concat</title>
<path fill="none" stroke="black" d="M797.32,-338.49C820.54,-344.22 855.32,-352.8 885.76,-360.31"/>
<polygon fill="black" stroke="black" points="884.73,-363.66 895.28,-362.66 886.41,-356.86 884.73,-363.66"/>
<text text-anchor="middle" x="847" y="-356.32" font-family="Consolas" font-size="10.00">[B, 768]</text>
</g>
<!-- Head_total_score -->
<g id="node12" class="node">
<title>Head_total_score</title>
<polygon fill="#c8e6c9" stroke="black" points="1337.25,-709.5 1109,-709.5 1109,-662.5 1337.25,-662.5 1337.25,-709.5"/>
<text text-anchor="middle" x="1223.12" y="-692.2" font-family="Segoe UI" font-size="14.00">Total Score Head</text>
<text text-anchor="middle" x="1223.12" y="-672.7" font-family="Segoe UI" font-size="14.00">[Linear&#45;&gt;ReLU&#45;&gt;Dropout&#45;&gt;Linear]</text>
</g>
<!-- Concat&#45;&gt;Head_total_score -->
<g id="edge18" class="edge">
<title>Concat&#45;&gt;Head_total_score</title>
<path fill="none" stroke="black" d="M960,-399.74C978.64,-448.08 1027.07,-558.83 1101,-624 1115.67,-636.93 1133.51,-647.98 1150.94,-657.01"/>
<polygon fill="black" stroke="black" points="1149.26,-660.09 1159.77,-661.42 1152.39,-653.82 1149.26,-660.09"/>
<text text-anchor="middle" x="1056.38" y="-603.2" font-family="Consolas" font-size="10.00">[B, 1536]</text>
</g>
<!-- Head_composition -->
<g id="node14" class="node">
<title>Head_composition</title>
<polygon fill="#c8e6c9" stroke="black" points="1337.25,-602.5 1109,-602.5 1109,-555.5 1337.25,-555.5 1337.25,-602.5"/>
<text text-anchor="middle" x="1223.12" y="-585.2" font-family="Segoe UI" font-size="14.00">Composition Head</text>
<text text-anchor="middle" x="1223.12" y="-565.7" font-family="Segoe UI" font-size="14.00">[Linear&#45;&gt;ReLU&#45;&gt;Dropout&#45;&gt;Linear]</text>
</g>
<!-- Concat&#45;&gt;Head_composition -->
<g id="edge19" class="edge">
<title>Concat&#45;&gt;Head_composition</title>
<path fill="none" stroke="black" d="M971.77,-399.8C998.93,-430.46 1049.57,-484.08 1101,-520 1117.11,-531.25 1135.69,-541.47 1153.39,-550.13"/>
<polygon fill="black" stroke="black" points="1151.78,-553.24 1162.31,-554.39 1154.79,-546.92 1151.78,-553.24"/>
<text text-anchor="middle" x="1056.38" y="-504.12" font-family="Consolas" font-size="10.00">[B, 1536]</text>
</g>
<!-- Head_color -->
<g id="node16" class="node">
<title>Head_color</title>
<polygon fill="#c8e6c9" stroke="black" points="1337.25,-498.5 1109,-498.5 1109,-451.5 1337.25,-451.5 1337.25,-498.5"/>
<text text-anchor="middle" x="1223.12" y="-481.2" font-family="Segoe UI" font-size="14.00">Color Head</text>
<text text-anchor="middle" x="1223.12" y="-461.7" font-family="Segoe UI" font-size="14.00">[Linear&#45;&gt;ReLU&#45;&gt;Dropout&#45;&gt;Linear]</text>
</g>
<!-- Concat&#45;&gt;Head_color -->
<g id="edge20" class="edge">
<title>Concat&#45;&gt;Head_color</title>
<path fill="none" stroke="black" d="M1004.22,-395.32C1044.68,-410.12 1101.05,-430.73 1146.32,-447.28"/>
<polygon fill="black" stroke="black" points="1144.96,-450.51 1155.56,-450.66 1147.37,-443.94 1144.96,-450.51"/>
<text text-anchor="middle" x="1056.38" y="-423.53" font-family="Consolas" font-size="10.00">[B, 1536]</text>
</g>
<!-- Head_lighting -->
<g id="node18" class="node">
<title>Head_lighting</title>
<polygon fill="#c8e6c9" stroke="black" points="1337.25,-399.5 1109,-399.5 1109,-352.5 1337.25,-352.5 1337.25,-399.5"/>
<text text-anchor="middle" x="1223.12" y="-382.2" font-family="Segoe UI" font-size="14.00">Lighting Head</text>
<text text-anchor="middle" x="1223.12" y="-362.7" font-family="Segoe UI" font-size="14.00">[Linear&#45;&gt;ReLU&#45;&gt;Dropout&#45;&gt;Linear]</text>
</g>
<!-- Concat&#45;&gt;Head_lighting -->
<g id="edge21" class="edge">
<title>Concat&#45;&gt;Head_lighting</title>
<path fill="none" stroke="black" d="M1004.22,-376C1030.97,-376 1064.68,-376 1097.54,-376"/>
<polygon fill="black" stroke="black" points="1097.12,-379.5 1107.12,-376 1097.12,-372.5 1097.12,-379.5"/>
<text text-anchor="middle" x="1056.38" y="-377" font-family="Consolas" font-size="10.00">[B, 1536]</text>
</g>
<!-- Head_subject_clarity -->
<g id="node20" class="node">
<title>Head_subject_clarity</title>
<polygon fill="#c8e6c9" stroke="black" points="1337.25,-307.5 1109,-307.5 1109,-260.5 1337.25,-260.5 1337.25,-307.5"/>
<text text-anchor="middle" x="1223.12" y="-290.2" font-family="Segoe UI" font-size="14.00">Subject Clarity Head</text>
<text text-anchor="middle" x="1223.12" y="-270.7" font-family="Segoe UI" font-size="14.00">[Linear&#45;&gt;ReLU&#45;&gt;Dropout&#45;&gt;Linear]</text>
</g>
<!-- Concat&#45;&gt;Head_subject_clarity -->
<g id="edge22" class="edge">
<title>Concat&#45;&gt;Head_subject_clarity</title>
<path fill="none" stroke="black" d="M1004.22,-358.04C1043.1,-344.83 1096.68,-326.63 1140.97,-311.58"/>
<polygon fill="black" stroke="black" points="1141.95,-314.94 1150.29,-308.41 1139.7,-308.31 1141.95,-314.94"/>
<text text-anchor="middle" x="1056.38" y="-347.24" font-family="Consolas" font-size="10.00">[B, 1536]</text>
</g>
<!-- Head_creativity -->
<g id="node22" class="node">
<title>Head_creativity</title>
<polygon fill="#c8e6c9" stroke="black" points="1337.25,-214.5 1109,-214.5 1109,-167.5 1337.25,-167.5 1337.25,-214.5"/>
<text text-anchor="middle" x="1223.12" y="-197.2" font-family="Segoe UI" font-size="14.00">Creativity Head</text>
<text text-anchor="middle" x="1223.12" y="-177.7" font-family="Segoe UI" font-size="14.00">[Linear&#45;&gt;ReLU&#45;&gt;Dropout&#45;&gt;Linear]</text>
</g>
<!-- Concat&#45;&gt;Head_creativity -->
<g id="edge23" class="edge">
<title>Concat&#45;&gt;Head_creativity</title>
<path fill="none" stroke="black" d="M972.31,-352.07C999.47,-322.23 1049.5,-271.24 1101,-239 1112.72,-231.66 1125.76,-225.09 1138.81,-219.34"/>
<polygon fill="black" stroke="black" points="1140.02,-222.62 1147.86,-215.49 1137.29,-216.18 1140.02,-222.62"/>
<text text-anchor="middle" x="1056.38" y="-290.69" font-family="Consolas" font-size="10.00">[B, 1536]</text>
</g>
<!-- Head_commercial_appeal -->
<g id="node24" class="node">
<title>Head_commercial_appeal</title>
<polygon fill="#c8e6c9" stroke="black" points="1337.25,-118.5 1109,-118.5 1109,-71.5 1337.25,-71.5 1337.25,-118.5"/>
<text text-anchor="middle" x="1223.12" y="-101.2" font-family="Segoe UI" font-size="14.00">Commercial Appeal Head</text>
<text text-anchor="middle" x="1223.12" y="-81.7" font-family="Segoe UI" font-size="14.00">[Linear&#45;&gt;ReLU&#45;&gt;Dropout&#45;&gt;Linear]</text>
</g>
<!-- Concat&#45;&gt;Head_commercial_appeal -->
<g id="edge24" class="edge">
<title>Concat&#45;&gt;Head_commercial_appeal</title>
<path fill="none" stroke="black" d="M960.39,-352.31C979.28,-305.83 1027.43,-202.33 1101,-146 1112.15,-137.46 1124.94,-130.08 1137.94,-123.8"/>
<polygon fill="black" stroke="black" points="1139.38,-126.98 1147,-119.62 1136.45,-120.63 1139.38,-126.98"/>
<text text-anchor="middle" x="1056.38" y="-217.22" font-family="Consolas" font-size="10.00">[B, 1536]</text>
</g>
<!-- Out_total_score -->
<g id="node13" class="node">
<title>Out_total_score</title>
<ellipse fill="#a5d6a7" stroke="black" cx="1523.98" cy="-703" rx="59.04" ry="33.23"/>
<text text-anchor="middle" x="1523.98" y="-709.2" font-family="Segoe UI" font-size="14.00">Total Score</text>
<text text-anchor="middle" x="1523.98" y="-689.7" font-family="Segoe UI" font-size="14.00">Score</text>
</g>
<!-- Head_total_score&#45;&gt;Out_total_score -->
<g id="edge5" class="edge">
<title>Head_total_score&#45;&gt;Out_total_score</title>
<path fill="none" stroke="black" d="M1337.53,-692.45C1376.55,-694.67 1419.05,-697.09 1453.51,-699.05"/>
<polygon fill="black" stroke="black" points="1453.18,-702.54 1463.36,-699.61 1453.58,-695.55 1453.18,-702.54"/>
<text text-anchor="middle" x="1382" y="-696.52" font-family="Consolas" font-size="10.00">[B, 1]</text>
</g>
<!-- Out_composition -->
<g id="node15" class="node">
<title>Out_composition</title>
<ellipse fill="#a5d6a7" stroke="black" cx="1523.98" cy="-594" rx="68.06" ry="33.23"/>
<text text-anchor="middle" x="1523.98" y="-600.2" font-family="Segoe UI" font-size="14.00">Composition</text>
<text text-anchor="middle" x="1523.98" y="-580.7" font-family="Segoe UI" font-size="14.00">Score</text>
</g>
<!-- Head_composition&#45;&gt;Out_composition -->
<g id="edge6" class="edge">
<title>Head_composition&#45;&gt;Out_composition</title>
<path fill="none" stroke="black" d="M1337.53,-584.69C1373.28,-586.49 1411.95,-588.43 1444.68,-590.07"/>
<polygon fill="black" stroke="black" points="1444.32,-593.56 1454.48,-590.56 1444.67,-586.57 1444.32,-593.56"/>
<text text-anchor="middle" x="1382" y="-588.4" font-family="Consolas" font-size="10.00">[B, 1]</text>
</g>
<!-- Out_color -->
<g id="node17" class="node">
<title>Out_color</title>
<ellipse fill="#a5d6a7" stroke="black" cx="1523.98" cy="-485" rx="35.71" ry="33.23"/>
<text text-anchor="middle" x="1523.98" y="-491.2" font-family="Segoe UI" font-size="14.00">Color</text>
<text text-anchor="middle" x="1523.98" y="-471.7" font-family="Segoe UI" font-size="14.00">Score</text>
</g>
<!-- Head_color&#45;&gt;Out_color -->
<g id="edge7" class="edge">
<title>Head_color&#45;&gt;Out_color</title>
<path fill="none" stroke="black" d="M1337.53,-478.79C1385.81,-480.41 1439.42,-482.2 1476.53,-483.45"/>
<polygon fill="black" stroke="black" points="1476.35,-486.94 1486.46,-483.78 1476.58,-479.95 1476.35,-486.94"/>
<text text-anchor="middle" x="1382" y="-481.6" font-family="Consolas" font-size="10.00">[B, 1]</text>
</g>
<!-- Out_lighting -->
<g id="node19" class="node">
<title>Out_lighting</title>
<ellipse fill="#a5d6a7" stroke="black" cx="1523.98" cy="-376" rx="47.91" ry="33.23"/>
<text text-anchor="middle" x="1523.98" y="-382.2" font-family="Segoe UI" font-size="14.00">Lighting</text>
<text text-anchor="middle" x="1523.98" y="-362.7" font-family="Segoe UI" font-size="14.00">Score</text>
</g>
<!-- Head_lighting&#45;&gt;Out_lighting -->
<g id="edge8" class="edge">
<title>Head_lighting&#45;&gt;Out_lighting</title>
<path fill="none" stroke="black" d="M1337.53,-376C1380.74,-376 1428.23,-376 1464.33,-376"/>
<polygon fill="black" stroke="black" points="1464.11,-379.5 1474.11,-376 1464.11,-372.5 1464.11,-379.5"/>
<text text-anchor="middle" x="1382" y="-377" font-family="Consolas" font-size="10.00">[B, 1]</text>
</g>
<!-- Out_subject_clarity -->
<g id="node21" class="node">
<title>Out_subject_clarity</title>
<ellipse fill="#a5d6a7" stroke="black" cx="1523.98" cy="-267" rx="74.42" ry="33.23"/>
<text text-anchor="middle" x="1523.98" y="-273.2" font-family="Segoe UI" font-size="14.00">Subject Clarity</text>
<text text-anchor="middle" x="1523.98" y="-253.7" font-family="Segoe UI" font-size="14.00">Score</text>
</g>
<!-- Head_subject_clarity&#45;&gt;Out_subject_clarity -->
<g id="edge9" class="edge">
<title>Head_subject_clarity&#45;&gt;Out_subject_clarity</title>
<path fill="none" stroke="black" d="M1337.53,-277.55C1371.06,-275.64 1407.17,-273.59 1438.53,-271.8"/>
<polygon fill="black" stroke="black" points="1438.56,-275.31 1448.34,-271.25 1438.16,-268.32 1438.56,-275.31"/>
<text text-anchor="middle" x="1382" y="-276.5" font-family="Consolas" font-size="10.00">[B, 1]</text>
</g>
<!-- Out_creativity -->
<g id="node23" class="node">
<title>Out_creativity</title>
<ellipse fill="#a5d6a7" stroke="black" cx="1523.98" cy="-158" rx="52.15" ry="33.23"/>
<text text-anchor="middle" x="1523.98" y="-164.2" font-family="Segoe UI" font-size="14.00">Creativity</text>
<text text-anchor="middle" x="1523.98" y="-144.7" font-family="Segoe UI" font-size="14.00">Score</text>
</g>
<!-- Head_creativity&#45;&gt;Out_creativity -->
<g id="edge10" class="edge">
<title>Head_creativity&#45;&gt;Out_creativity</title>
<path fill="none" stroke="black" d="M1337.53,-178.48C1379.4,-173.85 1425.28,-168.79 1460.93,-164.85"/>
<polygon fill="black" stroke="black" points="1461.07,-168.36 1470.63,-163.78 1460.3,-161.4 1461.07,-168.36"/>
<text text-anchor="middle" x="1382" y="-175.5" font-family="Consolas" font-size="10.00">[B, 1]</text>
</g>
<!-- Out_commercial_appeal -->
<g id="node25" class="node">
<title>Out_commercial_appeal</title>
<ellipse fill="#a5d6a7" stroke="black" cx="1523.98" cy="-49" rx="97.23" ry="33.23"/>
<text text-anchor="middle" x="1523.98" y="-55.2" font-family="Segoe UI" font-size="14.00">Commercial Appeal</text>
<text text-anchor="middle" x="1523.98" y="-35.7" font-family="Segoe UI" font-size="14.00">Score</text>
</g>
<!-- Head_commercial_appeal&#45;&gt;Out_commercial_appeal -->
<g id="edge11" class="edge">
<title>Head_commercial_appeal&#45;&gt;Out_commercial_appeal</title>
<path fill="none" stroke="black" d="M1337.53,-77.54C1365.83,-73.19 1395.97,-68.55 1423.53,-64.31"/>
<polygon fill="black" stroke="black" points="1423.92,-67.79 1433.28,-62.81 1422.86,-60.87 1423.92,-67.79"/>
<text text-anchor="middle" x="1382" y="-73" font-family="Consolas" font-size="10.00">[B, 1]</text>
</g>
</g>
</svg>
