<?xml version="1.0" encoding="UTF-8" standalone="no"?>
<!DOCTYPE svg PUBLIC "-//W3C//DTD SVG 1.1//EN"
 "http://www.w3.org/Graphics/SVG/1.1/DTD/svg11.dtd">
<!-- Generated by graphviz version 12.2.1 (20241206.2353)
 -->
<!-- Title: AestheticModel Pages: 1 -->
<svg width="2184pt" height="785pt"
 viewBox="0.00 0.00 2183.95 785.00" xmlns="http://www.w3.org/2000/svg" xmlns:xlink="http://www.w3.org/1999/xlink">
<g id="graph0" class="graph" transform="scale(1 1) rotate(0) translate(4 781)">
<title>AestheticModel</title>
<polygon fill="white" stroke="none" points="-4,4 -4,-781 2179.95,-781 2179.95,4 -4,4"/>
<g id="clust1" class="cluster">
<title>cluster_inputs</title>
<polygon fill="none" stroke="gray" stroke-dasharray="5,2" points="8,-285 8,-482 135.25,-482 135.25,-285 8,-285"/>
<text text-anchor="middle" x="71.62" y="-464.7" font-family="Times New Roman,serif" font-size="14.00">Inputs</text>
</g>
<g id="clust2" class="cluster">
<title>cluster_encoders</title>
<polygon fill="none" stroke="blue" stroke-dasharray="5,2" points="178.25,-300 178.25,-478 353.25,-478 353.25,-300 178.25,-300"/>
<text text-anchor="middle" x="265.75" y="-460.7" font-family="Times New Roman,serif" font-size="14.00">Encoders (Frozen/Finemode)</text>
</g>
<g id="clust3" class="cluster">
<title>cluster_vision_proj</title>
<polygon fill="none" stroke="orange" stroke-dasharray="5,2" points="442.5,-391 442.5,-498 1343.75,-498 1343.75,-391 442.5,-391"/>
<text text-anchor="middle" x="893.12" y="-480.7" font-family="Times New Roman,serif" font-size="14.00">Vision Projector</text>
</g>
<g id="clust4" class="cluster">
<title>cluster_text_proj</title>
<polygon fill="none" stroke="orange" stroke-dasharray="5,2" points="442.5,-276 442.5,-383 1343.75,-383 1343.75,-276 442.5,-276"/>
<text text-anchor="middle" x="893.12" y="-365.7" font-family="Times New Roman,serif" font-size="14.00">Text Projector</text>
</g>
<g id="clust5" class="cluster">
<title>cluster_heads</title>
<polygon fill="none" stroke="green" stroke-dasharray="5,2" points="1639.75,-8 1639.75,-769 2167.95,-769 2167.95,-8 1639.75,-8"/>
<text text-anchor="middle" x="1903.85" y="-751.7" font-family="Times New Roman,serif" font-size="14.00">Multi&#45;Head Prediction (MLP)</text>
</g>
<!-- Image -->
<g id="node1" class="node">
<title>Image</title>
<polygon fill="#e3f2fd" stroke="black" points="121.25,-449.5 16,-449.5 16,-402.5 127.25,-402.5 127.25,-443.5 121.25,-449.5"/>
<polyline fill="none" stroke="black" points="121.25,-449.5 121.25,-443.5"/>
<polyline fill="none" stroke="black" points="127.25,-443.5 121.25,-443.5"/>
<text text-anchor="middle" x="71.62" y="-432.2" font-family="Segoe UI" font-size="14.00">Image</text>
<text text-anchor="middle" x="71.62" y="-412.7" font-family="Segoe UI" font-size="14.00">[Batch, C, H, W]</text>
</g>
<!-- VisionEncoder -->
<g id="node3" class="node">
<title>VisionEncoder</title>
<polygon fill="#bbdefb" stroke="black" points="319.75,-445.5 210.75,-445.5 210.75,-398.5 319.75,-398.5 319.75,-445.5"/>
<text text-anchor="middle" x="265.25" y="-428.2" font-family="Segoe UI" font-size="14.00">Vision Encoder</text>
<text text-anchor="middle" x="265.25" y="-408.7" font-family="Segoe UI" font-size="14.00">ViT&#45;L&#45;14</text>
</g>
<!-- Image&#45;&gt;VisionEncoder -->
<g id="edge12" class="edge">
<title>Image&#45;&gt;VisionEncoder</title>
<path fill="none" stroke="black" d="M127.54,-424.85C149.77,-424.39 175.62,-423.85 198.82,-423.37"/>
<polygon fill="black" stroke="black" points="198.88,-426.87 208.81,-423.16 198.74,-419.87 198.88,-426.87"/>
</g>
<!-- Prompt -->
<g id="node2" class="node">
<title>Prompt</title>
<polygon fill="#fff3e0" stroke="black" points="110.38,-359.25 26.88,-359.25 26.88,-292.75 116.38,-292.75 116.38,-353.25 110.38,-359.25"/>
<polyline fill="none" stroke="black" points="110.38,-359.25 110.38,-353.25"/>
<polyline fill="none" stroke="black" points="116.38,-353.25 110.38,-353.25"/>
<text text-anchor="middle" x="71.62" y="-341.95" font-family="Segoe UI" font-size="14.00">Prompt</text>
<text text-anchor="middle" x="71.62" y="-322.45" font-family="Segoe UI" font-size="14.00">(Token IDs)</text>
<text text-anchor="middle" x="71.62" y="-302.95" font-family="Segoe UI" font-size="14.00">[Batch, Seq]</text>
</g>
<!-- TextEncoder -->
<g id="node4" class="node">
<title>TextEncoder</title>
<polygon fill="#ffe0b2" stroke="black" points="335.12,-355.5 195.38,-355.5 195.38,-308.5 335.12,-308.5 335.12,-355.5"/>
<text text-anchor="middle" x="265.25" y="-338.2" font-family="Segoe UI" font-size="14.00">Text Encoder</text>
<text text-anchor="middle" x="265.25" y="-318.7" font-family="Segoe UI" font-size="14.00">XLM&#45;RoBERTa&#45;Large</text>
</g>
<!-- Prompt&#45;&gt;TextEncoder -->
<g id="edge13" class="edge">
<title>Prompt&#45;&gt;TextEncoder</title>
<path fill="none" stroke="black" d="M116.59,-327.38C136.44,-328 160.54,-328.75 183.46,-329.47"/>
<polygon fill="black" stroke="black" points="183.34,-332.97 193.44,-329.78 183.55,-325.97 183.34,-332.97"/>
</g>
<!-- Vis_Linear -->
<g id="node5" class="node">
<title>Vis_Linear</title>
<polygon fill="#ffcc80" stroke="black" points="719.25,-465.25 450.5,-465.25 450.5,-398.75 719.25,-398.75 719.25,-465.25"/>
<text text-anchor="middle" x="584.88" y="-447.95" font-family="Segoe UI" font-size="14.00">Linear</text>
<text text-anchor="middle" x="584.88" y="-428.45" font-family="Segoe UI" font-size="14.00">1024 &#45;&gt; 768</text>
<text text-anchor="middle" x="584.88" y="-408.95" font-family="Segoe UI" font-size="14.00">(通过训练一个矩阵然后和1024相乘实现)</text>
</g>
<!-- VisionEncoder&#45;&gt;Vis_Linear -->
<g id="edge14" class="edge">
<title>VisionEncoder&#45;&gt;Vis_Linear</title>
<path fill="none" stroke="black" d="M320.13,-423.7C352.95,-424.73 396.59,-426.1 438.91,-427.44"/>
<polygon fill="black" stroke="black" points="438.6,-430.93 448.7,-427.74 438.82,-423.93 438.6,-430.93"/>
<text text-anchor="middle" x="397.88" y="-427.7" font-family="Consolas" font-size="10.00">[B, 1024]</text>
</g>
<!-- Txt_Linear -->
<g id="node8" class="node">
<title>Txt_Linear</title>
<polygon fill="#ffcc80" stroke="black" points="719.25,-350.25 450.5,-350.25 450.5,-283.75 719.25,-283.75 719.25,-350.25"/>
<text text-anchor="middle" x="584.88" y="-332.95" font-family="Segoe UI" font-size="14.00">Linear</text>
<text text-anchor="middle" x="584.88" y="-313.45" font-family="Segoe UI" font-size="14.00">1024 &#45;&gt; 768</text>
<text text-anchor="middle" x="584.88" y="-293.95" font-family="Segoe UI" font-size="14.00">(通过训练一个矩阵然后和1024相乘实现)</text>
</g>
<!-- TextEncoder&#45;&gt;Txt_Linear -->
<g id="edge15" class="edge">
<title>TextEncoder&#45;&gt;Txt_Linear</title>
<path fill="none" stroke="black" d="M335.56,-328.73C366,-327.29 402.95,-325.54 438.94,-323.84"/>
<polygon fill="black" stroke="black" points="438.74,-327.36 448.56,-323.39 438.41,-320.37 438.74,-327.36"/>
<text text-anchor="middle" x="397.88" y="-327.72" font-family="Consolas" font-size="10.00">[B, 1024]</text>
</g>
<!-- Vis_LN -->
<g id="node6" class="node">
<title>Vis_LN</title>
<polygon fill="#ffcc80" stroke="black" points="981,-453.5 778.25,-453.5 778.25,-406.5 981,-406.5 981,-453.5"/>
<text text-anchor="middle" x="879.62" y="-436.2" font-family="Segoe UI" font-size="14.00">LayerNorm</text>
<text text-anchor="middle" x="879.62" y="-416.7" font-family="Segoe UI" font-size="14.00">(作用: 归一化特征，稳定训练)</text>
</g>
<!-- Vis_Linear&#45;&gt;Vis_LN -->
<g id="edge1" class="edge">
<title>Vis_Linear&#45;&gt;Vis_LN</title>
<path fill="none" stroke="black" d="M719.4,-431.09C735.3,-430.98 751.4,-430.87 766.94,-430.76"/>
<polygon fill="black" stroke="black" points="766.66,-434.27 776.64,-430.7 766.62,-427.27 766.66,-434.27"/>
</g>
<!-- Vis_GELU -->
<g id="node7" class="node">
<title>Vis_GELU</title>
<polygon fill="#ffcc80" stroke="black" points="1335.75,-448.5 1040,-448.5 1040,-401.5 1335.75,-401.5 1335.75,-448.5"/>
<text text-anchor="middle" x="1187.88" y="-431.2" font-family="Segoe UI" font-size="14.00">GELU</text>
<text text-anchor="middle" x="1187.88" y="-411.7" font-family="Segoe UI" font-size="14.00">(实际上是非线性的改变对齐两个模态的结构)</text>
</g>
<!-- Vis_LN&#45;&gt;Vis_GELU -->
<g id="edge2" class="edge">
<title>Vis_LN&#45;&gt;Vis_GELU</title>
<path fill="none" stroke="black" d="M981.33,-428.36C996.48,-428.11 1012.42,-427.85 1028.43,-427.59"/>
<polygon fill="black" stroke="black" points="1028.07,-431.09 1038.01,-427.43 1027.95,-424.09 1028.07,-431.09"/>
</g>
<!-- Concat -->
<g id="node11" class="node">
<title>Concat</title>
<polygon fill="#e1bee7" stroke="black" points="1542.5,-399.5 1435.75,-399.5 1435.75,-352.5 1542.5,-352.5 1542.5,-399.5"/>
<text text-anchor="middle" x="1489.12" y="-382.2" font-family="Segoe UI" font-size="14.00">Concatenation</text>
<text text-anchor="middle" x="1489.12" y="-362.7" font-family="Segoe UI" font-size="14.00">(Vision + Text)</text>
</g>
<!-- Vis_GELU&#45;&gt;Concat -->
<g id="edge16" class="edge">
<title>Vis_GELU&#45;&gt;Concat</title>
<path fill="none" stroke="black" d="M1335.43,-401C1366.65,-395.89 1398.05,-390.75 1424.18,-386.47"/>
<polygon fill="black" stroke="black" points="1424.62,-389.94 1433.93,-384.87 1423.49,-383.04 1424.62,-389.94"/>
<text text-anchor="middle" x="1385.75" y="-397.11" font-family="Consolas" font-size="10.00">[B, 768]</text>
</g>
<!-- Txt_LN -->
<g id="node9" class="node">
<title>Txt_LN</title>
<polygon fill="#ffcc80" stroke="black" points="981,-346.5 778.25,-346.5 778.25,-299.5 981,-299.5 981,-346.5"/>
<text text-anchor="middle" x="879.62" y="-329.2" font-family="Segoe UI" font-size="14.00">LayerNorm</text>
<text text-anchor="middle" x="879.62" y="-309.7" font-family="Segoe UI" font-size="14.00">(作用: 归一化特征，稳定训练)</text>
</g>
<!-- Txt_Linear&#45;&gt;Txt_LN -->
<g id="edge3" class="edge">
<title>Txt_Linear&#45;&gt;Txt_LN</title>
<path fill="none" stroke="black" d="M719.4,-319.74C735.3,-320.06 751.4,-320.39 766.94,-320.71"/>
<polygon fill="black" stroke="black" points="766.57,-324.2 776.64,-320.91 766.71,-317.21 766.57,-324.2"/>
</g>
<!-- Txt_GELU -->
<g id="node10" class="node">
<title>Txt_GELU</title>
<polygon fill="#ffcc80" stroke="black" points="1335.75,-348.5 1040,-348.5 1040,-301.5 1335.75,-301.5 1335.75,-348.5"/>
<text text-anchor="middle" x="1187.88" y="-331.2" font-family="Segoe UI" font-size="14.00">GELU</text>
<text text-anchor="middle" x="1187.88" y="-311.7" font-family="Segoe UI" font-size="14.00">(实际上是非线性的改变对齐两个模态的结构)</text>
</g>
<!-- Txt_LN&#45;&gt;Txt_GELU -->
<g id="edge4" class="edge">
<title>Txt_LN&#45;&gt;Txt_GELU</title>
<path fill="none" stroke="black" d="M981.33,-323.66C996.48,-323.76 1012.42,-323.86 1028.43,-323.97"/>
<polygon fill="black" stroke="black" points="1027.99,-327.46 1038.01,-324.03 1028.03,-320.46 1027.99,-327.46"/>
</g>
<!-- Txt_GELU&#45;&gt;Concat -->
<g id="edge17" class="edge">
<title>Txt_GELU&#45;&gt;Concat</title>
<path fill="none" stroke="black" d="M1329.3,-348.93C1362.53,-354.6 1396.37,-360.36 1424.23,-365.11"/>
<polygon fill="black" stroke="black" points="1423.45,-368.53 1433.9,-366.76 1424.63,-361.63 1423.45,-368.53"/>
<text text-anchor="middle" x="1385.75" y="-361.93" font-family="Consolas" font-size="10.00">[B, 768]</text>
</g>
<!-- Head_total_score -->
<g id="node12" class="node">
<title>Head_total_score</title>
<polygon fill="#c8e6c9" stroke="black" points="1876,-709.5 1647.75,-709.5 1647.75,-662.5 1876,-662.5 1876,-709.5"/>
<text text-anchor="middle" x="1761.88" y="-692.2" font-family="Segoe UI" font-size="14.00">Total Score Head</text>
<text text-anchor="middle" x="1761.88" y="-672.7" font-family="Segoe UI" font-size="14.00">[Linear&#45;&gt;ReLU&#45;&gt;Dropout&#45;&gt;Linear]</text>
</g>
<!-- Concat&#45;&gt;Head_total_score -->
<g id="edge18" class="edge">
<title>Concat&#45;&gt;Head_total_score</title>
<path fill="none" stroke="black" d="M1498.75,-399.74C1517.39,-448.08 1565.82,-558.83 1639.75,-624 1654.42,-636.93 1672.26,-647.98 1689.69,-657.01"/>
<polygon fill="black" stroke="black" points="1688.01,-660.09 1698.52,-661.42 1691.14,-653.82 1688.01,-660.09"/>
<text text-anchor="middle" x="1595.12" y="-603.2" font-family="Consolas" font-size="10.00">[B, 1536]</text>
</g>
<!-- Head_composition -->
<g id="node14" class="node">
<title>Head_composition</title>
<polygon fill="#c8e6c9" stroke="black" points="1876,-602.5 1647.75,-602.5 1647.75,-555.5 1876,-555.5 1876,-602.5"/>
<text text-anchor="middle" x="1761.88" y="-585.2" font-family="Segoe UI" font-size="14.00">Composition Head</text>
<text text-anchor="middle" x="1761.88" y="-565.7" font-family="Segoe UI" font-size="14.00">[Linear&#45;&gt;ReLU&#45;&gt;Dropout&#45;&gt;Linear]</text>
</g>
<!-- Concat&#45;&gt;Head_composition -->
<g id="edge19" class="edge">
<title>Concat&#45;&gt;Head_composition</title>
<path fill="none" stroke="black" d="M1510.52,-399.8C1537.68,-430.46 1588.32,-484.08 1639.75,-520 1655.86,-531.25 1674.44,-541.47 1692.14,-550.13"/>
<polygon fill="black" stroke="black" points="1690.53,-553.24 1701.06,-554.39 1693.54,-546.92 1690.53,-553.24"/>
<text text-anchor="middle" x="1595.12" y="-504.12" font-family="Consolas" font-size="10.00">[B, 1536]</text>
</g>
<!-- Head_color -->
<g id="node16" class="node">
<title>Head_color</title>
<polygon fill="#c8e6c9" stroke="black" points="1876,-498.5 1647.75,-498.5 1647.75,-451.5 1876,-451.5 1876,-498.5"/>
<text text-anchor="middle" x="1761.88" y="-481.2" font-family="Segoe UI" font-size="14.00">Color Head</text>
<text text-anchor="middle" x="1761.88" y="-461.7" font-family="Segoe UI" font-size="14.00">[Linear&#45;&gt;ReLU&#45;&gt;Dropout&#45;&gt;Linear]</text>
</g>
<!-- Concat&#45;&gt;Head_color -->
<g id="edge20" class="edge">
<title>Concat&#45;&gt;Head_color</title>
<path fill="none" stroke="black" d="M1542.97,-395.32C1583.43,-410.12 1639.8,-430.73 1685.07,-447.28"/>
<polygon fill="black" stroke="black" points="1683.71,-450.51 1694.31,-450.66 1686.12,-443.94 1683.71,-450.51"/>
<text text-anchor="middle" x="1595.12" y="-423.53" font-family="Consolas" font-size="10.00">[B, 1536]</text>
</g>
<!-- Head_lighting -->
<g id="node18" class="node">
<title>Head_lighting</title>
<polygon fill="#c8e6c9" stroke="black" points="1876,-399.5 1647.75,-399.5 1647.75,-352.5 1876,-352.5 1876,-399.5"/>
<text text-anchor="middle" x="1761.88" y="-382.2" font-family="Segoe UI" font-size="14.00">Lighting Head</text>
<text text-anchor="middle" x="1761.88" y="-362.7" font-family="Segoe UI" font-size="14.00">[Linear&#45;&gt;ReLU&#45;&gt;Dropout&#45;&gt;Linear]</text>
</g>
<!-- Concat&#45;&gt;Head_lighting -->
<g id="edge21" class="edge">
<title>Concat&#45;&gt;Head_lighting</title>
<path fill="none" stroke="black" d="M1542.97,-376C1569.72,-376 1603.43,-376 1636.29,-376"/>
<polygon fill="black" stroke="black" points="1635.87,-379.5 1645.87,-376 1635.87,-372.5 1635.87,-379.5"/>
<text text-anchor="middle" x="1595.12" y="-377" font-family="Consolas" font-size="10.00">[B, 1536]</text>
</g>
<!-- Head_subject_clarity -->
<g id="node20" class="node">
<title>Head_subject_clarity</title>
<polygon fill="#c8e6c9" stroke="black" points="1876,-307.5 1647.75,-307.5 1647.75,-260.5 1876,-260.5 1876,-307.5"/>
<text text-anchor="middle" x="1761.88" y="-290.2" font-family="Segoe UI" font-size="14.00">Subject Clarity Head</text>
<text text-anchor="middle" x="1761.88" y="-270.7" font-family="Segoe UI" font-size="14.00">[Linear&#45;&gt;ReLU&#45;&gt;Dropout&#45;&gt;Linear]</text>
</g>
<!-- Concat&#45;&gt;Head_subject_clarity -->
<g id="edge22" class="edge">
<title>Concat&#45;&gt;Head_subject_clarity</title>
<path fill="none" stroke="black" d="M1542.97,-358.04C1581.85,-344.83 1635.43,-326.63 1679.72,-311.58"/>
<polygon fill="black" stroke="black" points="1680.7,-314.94 1689.04,-308.41 1678.45,-308.31 1680.7,-314.94"/>
<text text-anchor="middle" x="1595.12" y="-347.24" font-family="Consolas" font-size="10.00">[B, 1536]</text>
</g>
<!-- Head_creativity -->
<g id="node22" class="node">
<title>Head_creativity</title>
<polygon fill="#c8e6c9" stroke="black" points="1876,-214.5 1647.75,-214.5 1647.75,-167.5 1876,-167.5 1876,-214.5"/>
<text text-anchor="middle" x="1761.88" y="-197.2" font-family="Segoe UI" font-size="14.00">Creativity Head</text>
<text text-anchor="middle" x="1761.88" y="-177.7" font-family="Segoe UI" font-size="14.00">[Linear&#45;&gt;ReLU&#45;&gt;Dropout&#45;&gt;Linear]</text>
</g>
<!-- Concat&#45;&gt;Head_creativity -->
<g id="edge23" class="edge">
<title>Concat&#45;&gt;Head_creativity</title>
<path fill="none" stroke="black" d="M1511.06,-352.07C1538.22,-322.23 1588.25,-271.24 1639.75,-239 1651.47,-231.66 1664.51,-225.09 1677.56,-219.34"/>
<polygon fill="black" stroke="black" points="1678.77,-222.62 1686.61,-215.49 1676.04,-216.18 1678.77,-222.62"/>
<text text-anchor="middle" x="1595.12" y="-290.69" font-family="Consolas" font-size="10.00">[B, 1536]</text>
</g>
<!-- Head_commercial_appeal -->
<g id="node24" class="node">
<title>Head_commercial_appeal</title>
<polygon fill="#c8e6c9" stroke="black" points="1876,-118.5 1647.75,-118.5 1647.75,-71.5 1876,-71.5 1876,-118.5"/>
<text text-anchor="middle" x="1761.88" y="-101.2" font-family="Segoe UI" font-size="14.00">Commercial Appeal Head</text>
<text text-anchor="middle" x="1761.88" y="-81.7" font-family="Segoe UI" font-size="14.00">[Linear&#45;&gt;ReLU&#45;&gt;Dropout&#45;&gt;Linear]</text>
</g>
<!-- Concat&#45;&gt;Head_commercial_appeal -->
<g id="edge24" class="edge">
<title>Concat&#45;&gt;Head_commercial_appeal</title>
<path fill="none" stroke="black" d="M1499.14,-352.31C1518.03,-305.83 1566.18,-202.33 1639.75,-146 1650.9,-137.46 1663.69,-130.08 1676.69,-123.8"/>
<polygon fill="black" stroke="black" points="1678.13,-126.98 1685.75,-119.62 1675.2,-120.63 1678.13,-126.98"/>
<text text-anchor="middle" x="1595.12" y="-217.22" font-family="Consolas" font-size="10.00">[B, 1536]</text>
</g>
<!-- Out_total_score -->
<g id="node13" class="node">
<title>Out_total_score</title>
<ellipse fill="#a5d6a7" stroke="black" cx="2062.73" cy="-703" rx="59.04" ry="33.23"/>
<text text-anchor="middle" x="2062.73" y="-709.2" font-family="Segoe UI" font-size="14.00">Total Score</text>
<text text-anchor="middle" x="2062.73" y="-689.7" font-family="Segoe UI" font-size="14.00">Score</text>
</g>
<!-- Head_total_score&#45;&gt;Out_total_score -->
<g id="edge5" class="edge">
<title>Head_total_score&#45;&gt;Out_total_score</title>
<path fill="none" stroke="black" d="M1876.28,-692.45C1915.3,-694.67 1957.8,-697.09 1992.26,-699.05"/>
<polygon fill="black" stroke="black" points="1991.93,-702.54 2002.11,-699.61 1992.33,-695.55 1991.93,-702.54"/>
<text text-anchor="middle" x="1920.75" y="-696.52" font-family="Consolas" font-size="10.00">[B, 1]</text>
</g>
<!-- Out_composition -->
<g id="node15" class="node">
<title>Out_composition</title>
<ellipse fill="#a5d6a7" stroke="black" cx="2062.73" cy="-594" rx="68.06" ry="33.23"/>
<text text-anchor="middle" x="2062.73" y="-600.2" font-family="Segoe UI" font-size="14.00">Composition</text>
<text text-anchor="middle" x="2062.73" y="-580.7" font-family="Segoe UI" font-size="14.00">Score</text>
</g>
<!-- Head_composition&#45;&gt;Out_composition -->
<g id="edge6" class="edge">
<title>Head_composition&#45;&gt;Out_composition</title>
<path fill="none" stroke="black" d="M1876.28,-584.69C1912.03,-586.49 1950.7,-588.43 1983.43,-590.07"/>
<polygon fill="black" stroke="black" points="1983.07,-593.56 1993.23,-590.56 1983.42,-586.57 1983.07,-593.56"/>
<text text-anchor="middle" x="1920.75" y="-588.4" font-family="Consolas" font-size="10.00">[B, 1]</text>
</g>
<!-- Out_color -->
<g id="node17" class="node">
<title>Out_color</title>
<ellipse fill="#a5d6a7" stroke="black" cx="2062.73" cy="-485" rx="35.71" ry="33.23"/>
<text text-anchor="middle" x="2062.73" y="-491.2" font-family="Segoe UI" font-size="14.00">Color</text>
<text text-anchor="middle" x="2062.73" y="-471.7" font-family="Segoe UI" font-size="14.00">Score</text>
</g>
<!-- Head_color&#45;&gt;Out_color -->
<g id="edge7" class="edge">
<title>Head_color&#45;&gt;Out_color</title>
<path fill="none" stroke="black" d="M1876.28,-478.79C1924.56,-480.41 1978.17,-482.2 2015.28,-483.45"/>
<polygon fill="black" stroke="black" points="2015.1,-486.94 2025.21,-483.78 2015.33,-479.95 2015.1,-486.94"/>
<text text-anchor="middle" x="1920.75" y="-481.6" font-family="Consolas" font-size="10.00">[B, 1]</text>
</g>
<!-- Out_lighting -->
<g id="node19" class="node">
<title>Out_lighting</title>
<ellipse fill="#a5d6a7" stroke="black" cx="2062.73" cy="-376" rx="47.91" ry="33.23"/>
<text text-anchor="middle" x="2062.73" y="-382.2" font-family="Segoe UI" font-size="14.00">Lighting</text>
<text text-anchor="middle" x="2062.73" y="-362.7" font-family="Segoe UI" font-size="14.00">Score</text>
</g>
<!-- Head_lighting&#45;&gt;Out_lighting -->
<g id="edge8" class="edge">
<title>Head_lighting&#45;&gt;Out_lighting</title>
<path fill="none" stroke="black" d="M1876.28,-376C1919.49,-376 1966.98,-376 2003.08,-376"/>
<polygon fill="black" stroke="black" points="2002.86,-379.5 2012.86,-376 2002.86,-372.5 2002.86,-379.5"/>
<text text-anchor="middle" x="1920.75" y="-377" font-family="Consolas" font-size="10.00">[B, 1]</text>
</g>
<!-- Out_subject_clarity -->
<g id="node21" class="node">
<title>Out_subject_clarity</title>
<ellipse fill="#a5d6a7" stroke="black" cx="2062.73" cy="-267" rx="74.42" ry="33.23"/>
<text text-anchor="middle" x="2062.73" y="-273.2" font-family="Segoe UI" font-size="14.00">Subject Clarity</text>
<text text-anchor="middle" x="2062.73" y="-253.7" font-family="Segoe UI" font-size="14.00">Score</text>
</g>
<!-- Head_subject_clarity&#45;&gt;Out_subject_clarity -->
<g id="edge9" class="edge">
<title>Head_subject_clarity&#45;&gt;Out_subject_clarity</title>
<path fill="none" stroke="black" d="M1876.28,-277.55C1909.81,-275.64 1945.92,-273.59 1977.28,-271.8"/>
<polygon fill="black" stroke="black" points="1977.31,-275.31 1987.09,-271.25 1976.91,-268.32 1977.31,-275.31"/>
<text text-anchor="middle" x="1920.75" y="-276.5" font-family="Consolas" font-size="10.00">[B, 1]</text>
</g>
<!-- Out_creativity -->
<g id="node23" class="node">
<title>Out_creativity</title>
<ellipse fill="#a5d6a7" stroke="black" cx="2062.73" cy="-158" rx="52.15" ry="33.23"/>
<text text-anchor="middle" x="2062.73" y="-164.2" font-family="Segoe UI" font-size="14.00">Creativity</text>
<text text-anchor="middle" x="2062.73" y="-144.7" font-family="Segoe UI" font-size="14.00">Score</text>
</g>
<!-- Head_creativity&#45;&gt;Out_creativity -->
<g id="edge10" class="edge">
<title>Head_creativity&#45;&gt;Out_creativity</title>
<path fill="none" stroke="black" d="M1876.28,-178.48C1918.15,-173.85 1964.03,-168.79 1999.68,-164.85"/>
<polygon fill="black" stroke="black" points="1999.82,-168.36 2009.38,-163.78 1999.05,-161.4 1999.82,-168.36"/>
<text text-anchor="middle" x="1920.75" y="-175.5" font-family="Consolas" font-size="10.00">[B, 1]</text>
</g>
<!-- Out_commercial_appeal -->
<g id="node25" class="node">
<title>Out_commercial_appeal</title>
<ellipse fill="#a5d6a7" stroke="black" cx="2062.73" cy="-49" rx="97.23" ry="33.23"/>
<text text-anchor="middle" x="2062.73" y="-55.2" font-family="Segoe UI" font-size="14.00">Commercial Appeal</text>
<text text-anchor="middle" x="2062.73" y="-35.7" font-family="Segoe UI" font-size="14.00">Score</text>
</g>
<!-- Head_commercial_appeal&#45;&gt;Out_commercial_appeal -->
<g id="edge11" class="edge">
<title>Head_commercial_appeal&#45;&gt;Out_commercial_appeal</title>
<path fill="none" stroke="black" d="M1876.28,-77.54C1904.58,-73.19 1934.72,-68.55 1962.28,-64.31"/>
<polygon fill="black" stroke="black" points="1962.67,-67.79 1972.03,-62.81 1961.61,-60.87 1962.67,-67.79"/>
<text text-anchor="middle" x="1920.75" y="-73" font-family="Consolas" font-size="10.00">[B, 1]</text>
</g>
</g>
</svg>
